<svg width="41" height="40" viewBox="0 0 41 40" fill="none" xmlns="http://www.w3.org/2000/svg">
<path d="M16.1055 13.84L22.2416 20L16.1055 26.16L18.9146 29L27.8796 20L18.9145 11L16.1055 13.84ZM0.984374 20C0.984375 31.04 9.90962 40 20.9068 40C31.904 40 40.8292 31.04 40.8292 20C40.8292 8.96 31.904 -1.3568e-06 20.9068 -8.74228e-07C9.90962 -3.91654e-07 0.984374 8.96 0.984374 20ZM36.8447 20C36.8447 28.84 29.7125 36 20.9068 36C12.1011 36 4.96886 28.84 4.96886 20C4.96886 11.16 12.1011 4 20.9068 4C29.7125 4 36.8447 11.16 36.8447 20Z" fill="#8F5BD7"/>
</svg>
