<svg width="41" height="40" viewBox="0 0 41 40" fill="none" xmlns="http://www.w3.org/2000/svg">
<path d="M25.709 26.16L19.5729 20L25.709 13.84L22.8999 11L13.9348 20L22.8999 29L25.709 26.16ZM40.8301 20C40.8301 8.96 31.9048 -3.91654e-07 20.9077 -8.74228e-07C9.91048 -1.3568e-06 0.985241 8.96 0.98524 20C0.98524 31.04 9.91048 40 20.9077 40C31.9048 40 40.8301 31.04 40.8301 20ZM4.96973 20C4.96973 11.16 12.1019 4 20.9077 4C29.7134 4 36.8456 11.16 36.8456 20C36.8456 28.84 29.7134 36 20.9077 36C12.1019 36 4.96973 28.84 4.96973 20Z" fill="#8F5BD7"/>
</svg>
